<?xml version="1.0" encoding="utf-8"?>
<!-- Generator: Adobe Illustrator 22.0.1, SVG Export Plug-In . SVG Version: 6.00 Build 0)  -->
<svg version="1.1" id="Layer_1" xmlns="http://www.w3.org/2000/svg" xmlns:xlink="http://www.w3.org/1999/xlink" x="0px" y="0px"
	 viewBox="0 0 649.3 363.1" style="enable-background:new 0 0 649.3 363.1;" xml:space="preserve">
<style type="text/css">
	.st0{fill:#005288;}
	.st1{opacity:0.8;}
	.st2{fill:#00B3E7;}
	.st3{opacity:0.2;}
	.st4{opacity:0.25;}
	.st5{opacity:0.4;fill:#00B3E7;}
	.st6{opacity:0.8;fill:#00B3E7;}
	
		.st7{fill:none;stroke:#00B3E7;stroke-width:1.275;stroke-linecap:round;stroke-linejoin:round;stroke-miterlimit:10;stroke-dasharray:3.4,5.1;}
	.st8{opacity:0.5;fill:#00B3E7;}
</style>
<g>
	<polygon class="st0" points="431.1,127.7 307.9,135.5 413.4,179.2 	"/>
	<polygon class="st0" points="322.3,95.7 381.6,130.8 307.9,135.5 	"/>
	<polygon class="st0" points="411.2,89.6 381.6,130.8 431.1,127.7 	"/>
	<polygon class="st0" points="364.3,73.9 381.6,130.8 411.2,89.6 	"/>
	<polygon class="st0" points="322.3,95.7 364.3,73.9 381.6,130.8 	"/>
	<polygon class="st0" points="381.6,132.5 413.4,180.9 431.1,129.4 	"/>
	<polygon class="st0" points="307,183.5 363.5,232.6 412.6,183.5 	"/>
	<polygon class="st0" points="307,289 307,183.5 363.5,232.6 	"/>
	<polygon class="st0" points="307,183.5 365.4,163.9 412.6,183.5 	"/>
	<polygon class="st0" points="307,139.7 307,183.5 365.4,163.9 	"/>
</g>
<g>
	<polygon class="st0" points="179.3,129.4 302.5,137.2 196.9,180.9 	"/>
	<polygon class="st0" points="288,97.4 228.8,132.5 302.5,137.2 	"/>
	<polygon class="st0" points="198.5,87.1 228.2,128.3 178.7,125.2 	"/>
	<polygon class="st0" points="245.4,71.4 228.2,128.3 198.5,87.1 	"/>
	<polygon class="st0" points="287.4,93.2 245.4,71.4 228.2,128.3 	"/>
	<polygon class="st0" points="228.8,132.5 196.9,180.9 179.3,129.4 	"/>
	<polygon class="st0" points="302.5,137.2 302.5,180.9 196.9,180.9 	"/>
	<polygon class="st0" points="302.5,180.9 246,230 196.9,180.9 	"/>
	<polygon class="st0" points="302.5,286.5 302.5,180.9 246,230 	"/>
	<polygon class="st0" points="302.5,180.9 244,161.4 196.9,180.9 	"/>
	<polygon class="st0" points="302.5,137.2 302.5,180.9 244,161.4 	"/>
	<polygon class="st0" points="228.8,132.5 244,161.4 196.9,180.9 	"/>
	<polygon class="st0" points="302.5,137.2 228.8,132.5 244,161.4 	"/>
</g>
<g>
	<g>
		<path class="st0" d="M502,73.1l3.5-5.8c0.2-0.3,0.1-0.7-0.2-0.9c-0.3-0.2-0.7-0.1-0.9,0.2l-3.8,6.3c-0.2,0.3-0.1,0.6,0.2,0.8
			l5.8,4.3c0.1,0.1,0.3,0.1,0.5,0.1c0.2,0,0.3-0.1,0.4-0.2c0.2-0.3,0.2-0.7-0.1-0.9L502,73.1z"/>
		<path class="st0" d="M514.5,64.8c-0.3-0.2-0.7-0.2-0.9,0.1c-0.2,0.3-0.2,0.7,0.1,0.9l5.3,4l-3.5,5.8c-0.2,0.3-0.1,0.7,0.2,0.9
			c0.1,0.1,0.3,0.1,0.4,0.1c0.2,0,0.3-0.1,0.4-0.3l3.8-6.3c0.2-0.3,0.1-0.6-0.2-0.8L514.5,64.8z"/>
		<path class="st0" d="M511.9,63.2c-0.3-0.1-0.7,0.2-0.7,0.5l-2.5,15.3c-0.1,0.3,0.2,0.7,0.5,0.7c0.1,0,0.1,0,0.2,0
			c0.3,0,0.5-0.2,0.5-0.5l2.5-15.3C512.5,63.6,512.2,63.3,511.9,63.2z"/>
	</g>
	<g class="st1">
		<path class="st2" d="M504.4,72.5l3.5-5.8c0.2-0.3,0.1-0.7-0.2-0.9c-0.3-0.2-0.7-0.1-0.9,0.2l-3.8,6.3c-0.2,0.3-0.1,0.6,0.2,0.8
			l5.8,4.3c0.1,0.1,0.3,0.1,0.5,0.1c0.2,0,0.3-0.1,0.4-0.2c0.2-0.3,0.2-0.7-0.1-0.9L504.4,72.5z"/>
		<path class="st2" d="M516.8,64.2c-0.3-0.2-0.7-0.2-0.9,0.1c-0.2,0.3-0.2,0.7,0.1,0.9l5.3,4l-3.5,5.8c-0.2,0.3-0.1,0.7,0.2,0.9
			c0.1,0.1,0.3,0.1,0.4,0.1c0.2,0,0.3-0.1,0.4-0.3l3.8-6.3c0.2-0.3,0.1-0.6-0.2-0.8L516.8,64.2z"/>
		<path class="st2" d="M514.2,62.7c-0.3-0.1-0.7,0.2-0.7,0.5L511,78.5c-0.1,0.3,0.2,0.7,0.5,0.7c0.1,0,0.1,0,0.2,0
			c0.3,0,0.5-0.2,0.5-0.5l2.5-15.3C514.8,63.1,514.6,62.7,514.2,62.7z"/>
	</g>
	<g class="st3">
		<path class="st2" d="M500.9,71.8l3.5-5.8c0.2-0.3,0.1-0.7-0.2-0.9c-0.3-0.2-0.7-0.1-0.9,0.2l-3.8,6.3c-0.2,0.3-0.1,0.6,0.2,0.8
			l5.8,4.3c0.1,0.1,0.3,0.1,0.5,0.1c0.2,0,0.3-0.1,0.4-0.2c0.2-0.3,0.2-0.7-0.1-0.9L500.9,71.8z"/>
		<path class="st2" d="M513.3,63.4c-0.3-0.2-0.7-0.2-0.9,0.1c-0.2,0.3-0.2,0.7,0.1,0.9l5.3,4l-3.5,5.8c-0.2,0.3-0.1,0.7,0.2,0.9
			c0.1,0.1,0.3,0.1,0.4,0.1c0.2,0,0.3-0.1,0.4-0.3l3.8-6.3c0.2-0.3,0.1-0.6-0.2-0.8L513.3,63.4z"/>
		<path class="st2" d="M510.8,61.9c-0.3-0.1-0.7,0.2-0.7,0.5l-2.5,15.3c-0.1,0.3,0.2,0.7,0.5,0.7c0.1,0,0.1,0,0.2,0
			c0.3,0,0.5-0.2,0.5-0.5l2.5-15.3C511.4,62.3,511.1,62,510.8,61.9z"/>
	</g>
</g>
<g>
	<g class="st4">
		<path class="st2" d="M196.3,271.1c-6.3,0-11.5-5.1-11.5-11.5s5.1-11.5,11.5-11.5c6.3,0,11.5,5.1,11.5,11.5
			S202.6,271.1,196.3,271.1z M196.3,249.2c-5.8,0-10.4,4.7-10.4,10.4c0,5.8,4.7,10.4,10.4,10.4c5.8,0,10.4-4.7,10.4-10.4
			C206.7,253.9,202.1,249.2,196.3,249.2z"/>
		<g>
			<path class="st2" d="M199.1,266.6c-1.2,0.3-2.4,0.3-3.6,0.2c-1.4-0.2-2.7-0.6-3.7-1.3c-1-0.7-1.7-1.5-2.1-2.6
				c-0.4-1.1-0.6-2.3-0.4-3.6c0.2-1.5,0.7-2.8,1.5-4c0.8-1.1,1.9-1.9,3.1-2.4c1.2-0.5,2.6-0.7,4-0.5c1.3,0.1,2.3,0.5,3.2,1.1
				c0.9,0.6,1.5,1.4,1.9,2.3c0.4,0.9,0.5,2,0.4,3.2c-0.1,1-0.4,1.9-0.8,2.6c-0.4,0.7-0.9,1.3-1.4,1.6c-0.6,0.4-1.2,0.5-1.8,0.4
				c-0.5-0.1-0.9-0.2-1.2-0.5c-0.3-0.3-0.5-0.7-0.5-1.1c-0.4,0.4-0.8,0.7-1.3,0.9c-0.5,0.2-1,0.3-1.5,0.2c-0.8-0.1-1.3-0.4-1.7-1
				c-0.4-0.6-0.5-1.3-0.4-2.2c0.1-0.9,0.4-1.7,0.8-2.4c0.5-0.7,1-1.2,1.7-1.5c0.7-0.3,1.4-0.4,2.1-0.4c0.9,0.1,1.7,0.4,2.5,1
				l-1.2,4.1c-0.1,0.2-0.1,0.4-0.1,0.6c-0.1,0.9,0.2,1.3,0.9,1.4c0.5,0.1,0.9-0.1,1.4-0.4c0.4-0.3,0.8-0.8,1-1.4
				c0.3-0.6,0.5-1.3,0.6-2.1c0.2-1.6-0.1-2.9-1-4c-0.9-1-2.1-1.6-3.8-1.8c-1.4-0.2-2.6,0-3.7,0.5c-1.1,0.5-2,1.3-2.7,2.3
				c-0.7,1-1.1,2.2-1.3,3.5c-0.1,1.2,0,2.3,0.4,3.3c0.4,0.9,1,1.7,1.9,2.3c0.9,0.6,1.9,0.9,3.2,1.1c1.2,0.1,2.4,0.1,3.6-0.2
				L199.1,266.6z M195.1,262.4c0.5,0.1,1,0,1.5-0.3c0.5-0.2,0.9-0.6,1.2-1.1c0-0.1,0-0.3,0.1-0.4l1-3.7c-0.5-0.3-1.1-0.5-1.6-0.6
				c-0.6-0.1-1.2,0-1.7,0.4c-0.5,0.3-1,0.7-1.3,1.3c-0.3,0.6-0.5,1.2-0.6,2c-0.1,0.7,0,1.2,0.3,1.6
				C194.2,262.2,194.6,262.4,195.1,262.4z"/>
		</g>
	</g>
	<g class="st1">
		<path class="st2" d="M199.3,270.8c-6.3,0-11.5-5.1-11.5-11.5c0-6.3,5.1-11.5,11.5-11.5s11.5,5.1,11.5,11.5
			C210.8,265.7,205.7,270.8,199.3,270.8z M199.3,248.9c-5.8,0-10.4,4.7-10.4,10.4s4.7,10.4,10.4,10.4c5.8,0,10.4-4.7,10.4-10.4
			S205.1,248.9,199.3,248.9z"/>
		<g>
			<path class="st2" d="M202.1,266.3c-1.2,0.3-2.4,0.3-3.6,0.2c-1.4-0.2-2.7-0.6-3.7-1.3c-1-0.7-1.7-1.5-2.1-2.6
				c-0.4-1.1-0.6-2.3-0.4-3.6c0.2-1.5,0.7-2.8,1.5-4c0.8-1.1,1.9-1.9,3.1-2.4s2.6-0.7,4-0.5c1.3,0.1,2.3,0.5,3.2,1.1
				c0.9,0.6,1.5,1.4,1.9,2.3c0.4,0.9,0.5,2,0.4,3.2c-0.1,1-0.4,1.9-0.8,2.6c-0.4,0.7-0.9,1.3-1.4,1.6c-0.6,0.4-1.2,0.5-1.8,0.4
				c-0.5-0.1-0.9-0.2-1.2-0.5c-0.3-0.3-0.5-0.7-0.5-1.1c-0.4,0.4-0.8,0.7-1.3,0.9c-0.5,0.2-1,0.3-1.5,0.2c-0.8-0.1-1.3-0.4-1.7-1
				c-0.4-0.6-0.5-1.3-0.4-2.2c0.1-0.9,0.4-1.7,0.8-2.4c0.5-0.7,1-1.2,1.7-1.5c0.7-0.3,1.4-0.4,2.1-0.4c0.9,0.1,1.7,0.4,2.5,1
				l-1.2,4.1c-0.1,0.2-0.1,0.4-0.1,0.6c-0.1,0.9,0.2,1.3,0.9,1.4c0.5,0.1,0.9-0.1,1.4-0.4c0.4-0.3,0.8-0.8,1-1.4
				c0.3-0.6,0.5-1.3,0.6-2.1c0.2-1.6-0.1-2.9-1-4c-0.9-1-2.1-1.6-3.8-1.8c-1.4-0.2-2.6,0-3.7,0.5c-1.1,0.5-2,1.3-2.7,2.3
				c-0.7,1-1.1,2.2-1.3,3.5c-0.1,1.2,0,2.3,0.4,3.3c0.4,0.9,1,1.7,1.9,2.3c0.9,0.6,1.9,0.9,3.2,1.1c1.2,0.1,2.4,0.1,3.6-0.2
				L202.1,266.3z M198.1,262.2c0.5,0.1,1,0,1.5-0.3c0.5-0.2,0.9-0.6,1.2-1.1c0-0.1,0-0.3,0.1-0.4l1-3.7c-0.5-0.3-1.1-0.5-1.6-0.6
				c-0.6-0.1-1.2,0-1.7,0.4c-0.5,0.3-1,0.7-1.3,1.3c-0.3,0.6-0.5,1.2-0.6,2c-0.1,0.7,0,1.2,0.3,1.6
				C197.2,261.9,197.6,262.1,198.1,262.2z"/>
		</g>
	</g>
	<g>
		<path class="st0" d="M197.9,271.8c-6.3,0-11.5-5.1-11.5-11.5c0-6.3,5.1-11.5,11.5-11.5c6.3,0,11.5,5.1,11.5,11.5
			C209.4,266.7,204.2,271.8,197.9,271.8z M197.9,249.9c-5.8,0-10.4,4.7-10.4,10.4c0,5.8,4.7,10.4,10.4,10.4
			c5.8,0,10.4-4.7,10.4-10.4C208.3,254.6,203.7,249.9,197.9,249.9z"/>
		<g>
			<path class="st0" d="M200.7,267.4c-1.2,0.3-2.4,0.3-3.6,0.2c-1.4-0.2-2.7-0.6-3.7-1.3c-1-0.7-1.7-1.5-2.1-2.6
				c-0.4-1.1-0.6-2.3-0.4-3.6c0.2-1.5,0.7-2.8,1.5-4c0.8-1.1,1.9-1.9,3.1-2.4c1.2-0.5,2.6-0.7,4-0.5c1.3,0.1,2.3,0.5,3.2,1.1
				c0.9,0.6,1.5,1.4,1.9,2.3c0.4,0.9,0.5,2,0.4,3.2c-0.1,1-0.4,1.9-0.8,2.6c-0.4,0.7-0.9,1.3-1.4,1.6c-0.6,0.4-1.2,0.5-1.8,0.4
				c-0.5-0.1-0.9-0.2-1.2-0.5c-0.3-0.3-0.5-0.7-0.5-1.1c-0.4,0.4-0.8,0.7-1.3,0.9c-0.5,0.2-1,0.3-1.5,0.2c-0.8-0.1-1.3-0.4-1.7-1
				c-0.4-0.6-0.5-1.3-0.4-2.2c0.1-0.9,0.4-1.7,0.8-2.4c0.5-0.7,1-1.2,1.7-1.5c0.7-0.3,1.4-0.4,2.1-0.4c0.9,0.1,1.7,0.4,2.5,1
				l-1.2,4.1c-0.1,0.2-0.1,0.4-0.1,0.6c-0.1,0.9,0.2,1.3,0.9,1.4c0.5,0.1,0.9-0.1,1.4-0.4c0.4-0.3,0.8-0.8,1-1.4
				c0.3-0.6,0.5-1.3,0.6-2.1c0.2-1.6-0.1-2.9-1-4c-0.9-1-2.1-1.6-3.8-1.8c-1.4-0.2-2.6,0-3.7,0.5c-1.1,0.5-2,1.3-2.7,2.3
				c-0.7,1-1.1,2.2-1.3,3.5c-0.1,1.2,0,2.3,0.4,3.3c0.4,0.9,1,1.7,1.9,2.3c0.9,0.6,1.9,0.9,3.2,1.1c1.2,0.1,2.4,0.1,3.6-0.2
				L200.7,267.4z M196.7,263.2c0.5,0.1,1,0,1.5-0.3c0.5-0.2,0.9-0.6,1.2-1.1c0-0.1,0-0.3,0.1-0.4l1-3.7c-0.5-0.3-1.1-0.5-1.6-0.6
				c-0.6-0.1-1.2,0-1.7,0.4c-0.5,0.3-1,0.7-1.3,1.3c-0.3,0.6-0.5,1.2-0.6,2c-0.1,0.7,0,1.2,0.3,1.6
				C195.8,262.9,196.2,263.1,196.7,263.2z"/>
		</g>
	</g>
</g>
<g>
	<g>
		<g>
			<g>
				<path class="st0" d="M180.2,40.4c0,0-0.1,0-0.1,0c-0.4-0.1-0.6-0.4-0.5-0.8l3.2-17.4c0.1-0.4,0.4-0.6,0.8-0.5
					c0.4,0.1,0.6,0.4,0.5,0.8l-3.2,17.4C180.9,40.1,180.6,40.4,180.2,40.4z"/>
			</g>
			<g>
				<path class="st0" d="M185.8,40.4c0,0-0.1,0-0.1,0c-0.4-0.1-0.6-0.4-0.5-0.8l3.2-17.4c0.1-0.4,0.4-0.6,0.8-0.5
					c0.4,0.1,0.6,0.4,0.5,0.8l-3.2,17.4C186.4,40.1,186.1,40.4,185.8,40.4z"/>
			</g>
		</g>
		<g>
			<g>
				<path class="st0" d="M192,29.1h-14c-0.4,0-0.7-0.3-0.7-0.7c0-0.4,0.3-0.7,0.7-0.7h14c0.4,0,0.7,0.3,0.7,0.7
					C192.7,28.8,192.4,29.1,192,29.1z"/>
			</g>
			<g>
				<path class="st0" d="M191.2,34.2h-14c-0.4,0-0.7-0.3-0.7-0.7c0-0.4,0.3-0.7,0.7-0.7h14c0.4,0,0.7,0.3,0.7,0.7
					C191.9,33.9,191.6,34.2,191.2,34.2z"/>
			</g>
		</g>
	</g>
	<g class="st1">
		<g>
			<g>
				<path class="st2" d="M182.6,42.9c0,0-0.1,0-0.1,0c-0.4-0.1-0.6-0.4-0.5-0.8l3.2-17.4c0.1-0.4,0.4-0.6,0.8-0.5
					c0.4,0.1,0.6,0.4,0.5,0.8l-3.2,17.4C183.2,42.7,182.9,42.9,182.6,42.9z"/>
			</g>
			<g>
				<path class="st2" d="M188.1,42.9c0,0-0.1,0-0.1,0c-0.4-0.1-0.6-0.4-0.5-0.8l3.2-17.4c0.1-0.4,0.4-0.6,0.8-0.5
					c0.4,0.1,0.6,0.4,0.5,0.8l-3.2,17.4C188.7,42.7,188.4,42.9,188.1,42.9z"/>
			</g>
		</g>
		<g>
			<g>
				<path class="st2" d="M194.3,31.6h-14c-0.4,0-0.7-0.3-0.7-0.7c0-0.4,0.3-0.7,0.7-0.7h14c0.4,0,0.7,0.3,0.7,0.7
					C195,31.3,194.7,31.6,194.3,31.6z"/>
			</g>
			<g>
				<path class="st2" d="M193.6,36.7h-14c-0.4,0-0.7-0.3-0.7-0.7c0-0.4,0.3-0.7,0.7-0.7h14c0.4,0,0.7,0.3,0.7,0.7
					C194.2,36.4,193.9,36.7,193.6,36.7z"/>
			</g>
		</g>
	</g>
	<g class="st4">
		<g>
			<g>
				<path class="st2" d="M186.8,39.7c0,0-0.1,0-0.1,0c-0.4-0.1-0.6-0.4-0.5-0.8l3.2-17.4c0.1-0.4,0.4-0.6,0.8-0.5
					c0.4,0.1,0.6,0.4,0.5,0.8l-3.2,17.4C187.4,39.5,187.1,39.7,186.8,39.7z"/>
			</g>
			<g>
				<path class="st2" d="M192.3,39.7c0,0-0.1,0-0.1,0c-0.4-0.1-0.6-0.4-0.5-0.8l3.2-17.4c0.1-0.4,0.4-0.6,0.8-0.5
					c0.4,0.1,0.6,0.4,0.5,0.8L193,39.1C192.9,39.5,192.7,39.7,192.3,39.7z"/>
			</g>
		</g>
		<g>
			<g>
				<path class="st2" d="M198.6,28.4h-14c-0.4,0-0.7-0.3-0.7-0.7c0-0.4,0.3-0.7,0.7-0.7h14c0.4,0,0.7,0.3,0.7,0.7
					C199.2,28.1,198.9,28.4,198.6,28.4z"/>
			</g>
			<g>
				<path class="st2" d="M197.8,33.5h-14c-0.4,0-0.7-0.3-0.7-0.7c0-0.4,0.3-0.7,0.7-0.7h14c0.4,0,0.7,0.3,0.7,0.7
					C198.5,33.2,198.2,33.5,197.8,33.5z"/>
			</g>
		</g>
	</g>
</g>
<polygon class="st5" points="300.3,170.5 172,282.2 85,170.5 "/>
<g>
	<g>
		<path class="st0" d="M415.5,217.7c-0.1,0-0.2,0-0.3-0.1c-0.3-0.2-8-4.1-10-11c-1.2-4.2,1-7.1,3.7-8c2.3-0.8,5.1-0.2,6.7,2.2
			c1.6-2.4,4.5-3,6.7-2.2c2.6,0.9,4.9,3.8,3.7,8c-2,6.9-9.7,10.9-10,11C415.7,217.7,415.6,217.7,415.5,217.7z M410.7,199.8
			c-0.5,0-1,0.1-1.5,0.2c-2,0.7-3.6,2.8-2.7,6.1c1.6,5.5,7.4,9.1,8.9,9.9c1.5-0.8,7.3-4.4,8.9-9.9c1-3.2-0.6-5.4-2.7-6.1
			c-1.9-0.6-4.4-0.1-5.5,2.7c-0.1,0.3-0.4,0.5-0.7,0.5c-0.3,0-0.6-0.2-0.7-0.5C413.9,200.7,412.3,199.8,410.7,199.8z"/>
	</g>
	<g class="st1">
		<path class="st2" d="M413,216c-0.1,0-0.2,0-0.3-0.1c-0.3-0.2-8-4.1-10-11c-1.2-4.2,1-7.1,3.7-8c2.3-0.8,5.1-0.2,6.7,2.2
			c1.6-2.4,4.5-3,6.7-2.2c2.6,0.9,4.9,3.8,3.7,8c-2,6.9-9.7,10.9-10,11C413.2,216,413.1,216,413,216z M408.2,198.2
			c-0.5,0-1,0.1-1.5,0.2c-2,0.7-3.6,2.8-2.7,6.1c1.6,5.5,7.4,9.1,8.9,9.9c1.5-0.8,7.3-4.4,8.9-9.9c1-3.2-0.6-5.4-2.7-6.1
			c-1.9-0.6-4.4-0.1-5.5,2.7c-0.1,0.3-0.4,0.5-0.7,0.5s-0.6-0.2-0.7-0.5C411.4,199,409.8,198.2,408.2,198.2z"/>
	</g>
	<g class="st3">
		<path class="st2" d="M417.8,220.4c-0.1,0-0.2,0-0.3-0.1c-0.3-0.2-8-4.1-10-11c-1.2-4.2,1-7.1,3.7-8c2.3-0.8,5.1-0.2,6.7,2.2
			c1.6-2.4,4.5-3,6.7-2.2c2.6,0.9,4.9,3.8,3.7,8c-2,6.9-9.7,10.9-10,11C418,220.4,417.9,220.4,417.8,220.4z M413,202.6
			c-0.5,0-1,0.1-1.5,0.2c-2,0.7-3.6,2.8-2.7,6.1c1.6,5.5,7.4,9.1,8.9,9.9c1.5-0.8,7.3-4.4,8.9-9.9c1-3.2-0.6-5.4-2.7-6.1
			c-1.9-0.6-4.4-0.1-5.5,2.7c-0.1,0.3-0.4,0.5-0.7,0.5c-0.3,0-0.6-0.2-0.7-0.5C416.2,203.4,414.6,202.6,413,202.6z"/>
	</g>
</g>
<polygon class="st6" points="210.1,54.7 328.7,10.7 377.3,125.6 "/>
<polygon class="st7" points="257.9,54.7 342.6,10.7 377.3,125.6 "/>
<polygon class="st8" points="509.4,10.7 330.4,116.4 553,130.6 "/>
<polygon class="st7" points="387.5,139.3 418.7,186.5 435.9,136.2 "/>
<polygon class="st0" points="500.8,136.7 515.7,164.9 469.7,184 "/>
<polygon class="st6" points="594.3,136.7 522.3,132.1 537.2,160.3 "/>
<polygon class="st6" points="231.1,113.7 167.6,210.8 132.1,106.8 "/>
<polygon class="st7" points="245.5,141.1 150,218.6 147.8,102.1 "/>
<polygon class="st7" points="321.8,285.9 321.8,182.7 377,230.7 "/>
<polygon class="st7" points="492.3,135.3 515.9,156.7 479.1,190.4 "/>
<polygon class="st5" points="377.5,148.4 444.3,144.2 434.6,172.1 "/>
<polygon class="st0" points="637.3,55 637.3,97.7 580.1,78.6 "/>
<polygon class="st7" points="644.1,72.2 622.7,109.2 582.8,64 "/>
<polygon class="st6" points="49.4,79.2 6.7,76.7 29.1,20.8 "/>
<polygon class="st7" points="62.1,64.4 24.4,84.7 14.2,25.4 "/>
<polygon class="st0" points="94.6,333.2 117.4,297 125,330 "/>
<polygon class="st7" points="101.3,351.4 101.8,308.6 158.7,328.4 "/>
<polygon class="st0" points="468.4,345.3 425.7,342.9 447.1,309.1 "/>
<polygon class="st7" points="481.1,330.6 443.4,350.9 432.2,313.7 "/>
<polygon class="st7" points="584.6,119.8 520.1,152.3 547.2,169.1 "/>
<polygon class="st7" points="299.3,191.2 244.1,239.2 196.1,191.2 "/>
<polygon class="st7" points="349.6,132.3 349.6,175.1 246.4,175.1 "/>
<line class="st7" x1="193.6" y1="202" x2="254.7" y2="263.1"/>
<polyline class="st7" points="252.2,60.1 193.8,79.7 169.1,127.1 "/>
<polyline class="st7" points="324.2,299.5 379.2,244.5 440.4,183.3 462.3,119.3 437.6,71.9 379.2,52.3 327,79.5 "/>
<polyline class="st7" points="324.2,323.4 379.2,268.4 440.4,207.3 "/>
</svg>
