<svg id="Layer_1" xmlns="http://www.w3.org/2000/svg" viewBox="0 0 792 457.5"><style>.st0{fill:#005288}.st1{opacity:.8}.st2{fill:#00b3e7}.st3{opacity:.2}.st4{opacity:.25}.st10,.st6{fill:none;stroke:#00b3e7;stroke-linecap:round;stroke-linejoin:round}.st6{stroke-width:.5132}.st10{stroke-width:1.5;stroke-miterlimit:10;stroke-dasharray:4,6}.st12{opacity:.8;fill:#00b3e7}</style><path class="st0" d="M519.9 162.5L375 171.6l124.2 51.5z"/><path class="st0" d="M392 124.9l69.7 41.3-86.7 5.4zm104.6-7.2l-34.9 48.5 58.2-3.7zm-55.2-18.6l20.3 67.1 34.9-48.5z"/><path class="st0" d="M392 124.9l49.4-25.8 20.3 67.1zm69.7 43.3l37.5 56.9 20.7-60.6zM374 228.1l66.4 57.8 57.8-57.8z"/><path class="st0" d="M374 352.3V228.1l66.4 57.8zm0-124.2l68.7-23 55.5 23zm0-51.5v51.5l68.7-23zm-150.3-12.1l145 9.1-124.3 51.5z"/><path class="st0" d="M351.6 126.9L282 168.2l86.7 5.4zm-105.2-12.1l34.9 48.5-58.3-3.7z"/><path class="st0" d="M301.5 96.2l-20.2 67.1-34.9-48.5zm49.4 25.7l-49.4-25.7-20.2 67.1zM282 168.2l-37.6 56.9-20.7-60.6zm86.7 5.4v51.5H244.4z"/><path class="st0" d="M368.7 225.1l-66.5 57.8-57.8-57.8z"/><path class="st0" d="M368.7 349.3V225.1l-66.5 57.8zm0-124.2l-68.8-23-55.5 23zm0-51.5v51.5l-68.8-23zm-86.7-5.4l17.9 33.9-55.5 23zm86.7 5.4l-86.7-5.4 17.9 33.9zm234.7-75.4l4.2-6.8c.2-.3.1-.8-.2-1-.3-.2-.8-.1-1 .2l-4.5 7.4c-.2.3-.1.7.2 1l6.8 5.1c.2.1.4.2.6.1.2 0 .3-.1.5-.3.2-.3.2-.8-.2-1l-6.4-4.7zm14.6-9.8c-.3-.2-.8-.2-1 .2-.2.3-.2.8.2 1l6.3 4.7-4.2 6.8c-.2.3-.1.8.2 1 .2.1.3.1.5.1s.4-.2.5-.3l4.5-7.4c.2-.3.1-.7-.2-1l-6.8-5.1zm-3-1.8c-.4-.1-.8.2-.8.6l-2.9 18c-.1.4.2.8.6.8h.3c.3-.1.5-.3.6-.6l2.9-18c0-.3-.3-.7-.7-.8z"/><g class="st1"><path class="st2" d="M606.2 97.6l4.2-6.8c.2-.3.1-.8-.2-1-.3-.2-.8-.1-1 .2l-4.5 7.4c-.2.3-.1.7.2 1l6.8 5.1c.2.1.4.2.6.1.2 0 .3-.1.5-.3.2-.3.2-.8-.2-1l-6.4-4.7zm14.6-9.8c-.3-.2-.8-.2-1 .2-.2.3-.2.8.2 1l6.3 4.7-4.2 6.8c-.2.3-.1.8.2 1 .2.1.3.1.5.1s.4-.2.5-.3l4.5-7.4c.2-.3.1-.7-.2-1l-6.8-5.1zm-3-1.8c-.4-.1-.8.2-.8.6l-2.9 18c-.1.4.2.8.6.8h.3c.3-.1.5-.3.6-.6l2.9-18c-.1-.4-.3-.7-.7-.8z"/></g><g class="st3"><path class="st2" d="M602.1 96.7l4.2-6.8c.2-.3.1-.8-.2-1-.3-.2-.8-.1-1 .2l-4.5 7.4c-.2.3-.1.7.2 1l6.8 5.1c.2.1.4.2.6.1.2 0 .3-.1.5-.3.2-.3.2-.8-.2-1l-6.4-4.7zm14.6-9.8c-.3-.2-.8-.2-1 .2-.2.3-.2.8.2 1l6.3 4.7-4.2 6.8c-.2.3-.1.8.2 1 .2.1.3.1.5.1s.4-.2.5-.3l4.5-7.4c.2-.3.1-.7-.2-1l-6.8-5.1zm-3-1.8c-.4-.1-.8.2-.8.6l-2.9 18c-.1.4.2.8.6.8h.3c.3-.1.5-.3.6-.6l2.9-18c0-.4-.3-.7-.7-.8z"/></g><g class="st4"><path class="st2" d="M243.7 331.2c-7.4 0-13.5-6.1-13.5-13.5s6.1-13.5 13.5-13.5 13.5 6.1 13.5 13.5-6 13.5-13.5 13.5zm0-25.8c-6.8 0-12.3 5.5-12.3 12.3S237 330 243.7 330c6.8 0 12.3-5.5 12.3-12.3s-5.5-12.3-12.3-12.3z"/><path class="st2" d="M247 325.9c-1.4.3-2.8.4-4.3.2-1.7-.2-3.1-.7-4.3-1.5-1.2-.8-2-1.8-2.5-3.1s-.7-2.7-.5-4.2c.2-1.8.8-3.3 1.8-4.7 1-1.3 2.2-2.3 3.7-2.9 1.5-.6 3-.8 4.7-.6 1.5.2 2.8.6 3.8 1.3 1.1.7 1.8 1.6 2.3 2.7.5 1.1.6 2.3.5 3.7-.1 1.2-.4 2.2-.9 3.1-.5.9-1 1.5-1.7 1.9-.7.4-1.4.6-2.1.5-.6-.1-1-.3-1.4-.6-.3-.3-.5-.8-.6-1.3-.5.5-1 .9-1.6 1.1-.6.2-1.2.3-1.8.2-.9-.1-1.6-.5-2-1.2-.5-.7-.6-1.5-.5-2.6.1-1.1.5-2 1-2.8.5-.8 1.2-1.4 2-1.8.8-.4 1.6-.5 2.5-.4 1 .1 2 .5 3 1.2l-1.4 4.9c-.1.2-.1.5-.1.8-.1 1 .2 1.6 1.1 1.7.6.1 1.1-.1 1.6-.5s.9-.9 1.2-1.7c.3-.7.5-1.6.7-2.5.2-1.9-.2-3.5-1.2-4.7-1-1.2-2.5-1.9-4.5-2.2-1.6-.2-3 0-4.4.6-1.3.6-2.4 1.5-3.2 2.7-.8 1.2-1.3 2.6-1.5 4.1-.2 1.5 0 2.8.5 3.9s1.2 2 2.2 2.7c1 .7 2.3 1.1 3.7 1.3 1.4.2 2.8.1 4.3-.2l-.1.9zm-4.7-4.9c.6.1 1.2 0 1.7-.3.6-.3 1.1-.7 1.5-1.2 0-.1.1-.3.1-.5l1.2-4.3c-.6-.4-1.3-.6-1.9-.7-.7-.1-1.4.1-2 .4-.6.4-1.1.9-1.5 1.5-.4.7-.6 1.4-.7 2.3-.1.8 0 1.5.3 1.9.2.6.7.8 1.3.9z"/></g><g class="st1"><path class="st2" d="M247.3 330.8c-7.4 0-13.5-6.1-13.5-13.5s6.1-13.5 13.5-13.5 13.5 6.1 13.5 13.5-6 13.5-13.5 13.5zm0-25.7c-6.8 0-12.3 5.5-12.3 12.3s5.5 12.3 12.3 12.3c6.8 0 12.3-5.5 12.3-12.3s-5.5-12.3-12.3-12.3z"/><path class="st2" d="M250.6 325.6c-1.4.3-2.8.4-4.3.2-1.7-.2-3.1-.7-4.3-1.5-1.2-.8-2-1.8-2.5-3.1s-.7-2.7-.5-4.2c.2-1.8.8-3.3 1.8-4.7 1-1.3 2.2-2.3 3.7-2.9 1.5-.6 3-.8 4.7-.6 1.5.2 2.8.6 3.8 1.3 1.1.7 1.8 1.6 2.3 2.7.5 1.1.6 2.3.5 3.7-.1 1.2-.4 2.2-.9 3.1-.5.9-1 1.5-1.7 1.9-.7.4-1.4.6-2.1.5-.6-.1-1-.3-1.4-.6-.3-.3-.5-.8-.6-1.3-.5.5-1 .9-1.6 1.1-.6.2-1.2.3-1.8.2-.9-.1-1.6-.5-2-1.2-.5-.7-.6-1.5-.5-2.6.1-1.1.5-2 1-2.8.5-.8 1.2-1.4 2-1.8.8-.4 1.6-.5 2.5-.4 1 .1 2 .5 3 1.2l-1.4 4.9c-.1.2-.1.5-.1.8-.1 1 .2 1.6 1.1 1.7.6.1 1.1-.1 1.6-.5s.9-.9 1.2-1.7c.3-.7.5-1.6.7-2.5.2-1.9-.2-3.5-1.2-4.7-1-1.2-2.5-1.9-4.5-2.2-1.6-.2-3 0-4.4.6-1.3.6-2.4 1.5-3.2 2.7-.8 1.2-1.3 2.6-1.5 4.1-.2 1.5 0 2.8.5 3.9s1.2 2 2.2 2.7c1 .7 2.3 1.1 3.7 1.3 1.4.2 2.8.1 4.3-.2l-.1.9zm-4.7-4.9c.6.1 1.2 0 1.7-.3.6-.3 1.1-.7 1.5-1.2 0-.1.1-.3.1-.5l1.2-4.3c-.6-.4-1.3-.6-1.9-.7-.7-.1-1.4.1-2 .4-.6.4-1.1.9-1.5 1.5-.4.7-.6 1.4-.7 2.3-.1.8 0 1.5.3 1.9.2.5.7.8 1.3.9z"/></g><path class="st0" d="M245.6 332.1c-7.4 0-13.5-6.1-13.5-13.5s6.1-13.5 13.5-13.5 13.5 6.1 13.5 13.5-6 13.5-13.5 13.5zm0-25.8c-6.8 0-12.3 5.5-12.3 12.3s5.5 12.3 12.3 12.3c6.8 0 12.3-5.5 12.3-12.3s-5.5-12.3-12.3-12.3z"/><path class="st0" d="M248.9 326.8c-1.4.3-2.8.4-4.3.2-1.7-.2-3.1-.7-4.3-1.5-1.2-.8-2-1.8-2.5-3.1s-.7-2.7-.5-4.2c.2-1.8.8-3.3 1.8-4.7 1-1.3 2.2-2.3 3.7-2.9 1.5-.6 3-.8 4.7-.6 1.5.2 2.8.6 3.8 1.3 1.1.7 1.8 1.6 2.3 2.7.5 1.1.6 2.3.5 3.7-.1 1.2-.4 2.2-.9 3.1-.5.9-1 1.5-1.7 1.9-.7.4-1.4.6-2.1.5-.6-.1-1-.3-1.4-.6-.3-.3-.5-.8-.6-1.3-.5.5-1 .9-1.6 1.1-.6.2-1.2.3-1.8.2-.9-.1-1.6-.5-2-1.2-.5-.7-.6-1.5-.5-2.6.1-1.1.5-2 1-2.8.5-.8 1.2-1.4 2-1.8.8-.4 1.6-.5 2.5-.4 1 .1 2 .5 3 1.2l-1.4 4.9c-.1.2-.1.5-.1.8-.1 1 .2 1.6 1.1 1.7.6.1 1.1-.1 1.6-.5s.9-.9 1.2-1.7c.3-.7.5-1.6.7-2.5.2-1.9-.2-3.5-1.2-4.7-1-1.2-2.5-1.9-4.5-2.2-1.6-.2-3 0-4.4.6-1.3.6-2.4 1.5-3.2 2.7-.8 1.2-1.3 2.6-1.5 4.1-.2 1.5 0 2.8.5 3.9s1.2 2 2.2 2.7c1 .7 2.3 1.1 3.7 1.3 1.4.2 2.8.1 4.3-.2l-.1.9zm-4.7-4.9c.6.1 1.2 0 1.7-.3.6-.3 1.1-.7 1.5-1.2 0-.1.1-.3.1-.5l1.2-4.3c-.6-.4-1.3-.6-1.9-.7-.7-.1-1.4.1-2 .4-.6.4-1.1.9-1.5 1.5-.4.7-.6 1.4-.7 2.3-.1.8 0 1.5.3 1.9.2.5.7.8 1.3.9zM224.9 59.7h-.1c-.4-.1-.7-.5-.6-.9l3.7-20.5c.1-.4.5-.7.9-.6.4.1.7.5.6.9l-3.7 20.5c-.1.4-.5.6-.8.6zm6.4 0h-.1c-.4-.1-.7-.5-.6-.9l3.7-20.5c.1-.4.5-.7.9-.6.4.1.7.5.6.9l-3.7 20.5c-.1.4-.4.6-.8.6z"/><path class="st0" d="M238.7 46.5h-16.5c-.4 0-.8-.4-.8-.8s.4-.8.8-.8h16.5c.4 0 .8.4.8.8s-.4.8-.8.8zm-.9 6h-16.5c-.4 0-.8-.4-.8-.8s.4-.8.8-.8h16.5c.4 0 .8.4.8.8-.1.4-.4.8-.8.8z"/><g class="st1"><path class="st2" d="M227.6 62.7h-.1c-.4-.1-.7-.5-.6-.9l3.7-20.5c.1-.4.5-.7.9-.6.4.1.7.5.6.9l-3.7 20.5c0 .3-.4.6-.8.6zm6.5 0h-.1c-.4-.1-.7-.5-.6-.9l3.7-20.5c.1-.4.5-.7.9-.6.4.1.7.5.6.9l-3.7 20.5c-.1.3-.4.6-.8.6z"/><path class="st2" d="M241.4 49.5H225c-.4 0-.8-.4-.8-.8s.4-.8.8-.8h16.5c.4 0 .8.4.8.8-.1.4-.4.8-.9.8zm-.9 6H224c-.4 0-.8-.4-.8-.8s.4-.8.8-.8h16.5c.4 0 .8.4.8.8s-.3.8-.8.8z"/></g><g class="st4"><path class="st2" d="M232.6 58.9h-.1c-.4-.1-.7-.5-.6-.9l3.7-20.5c.1-.4.5-.7.9-.6.4.1.7.5.6.9l-3.7 20.5c-.1.4-.4.6-.8.6zm6.5 0h-.1c-.4-.1-.7-.5-.6-.9l3.7-20.5c.1-.4.5-.7.9-.6.4.1.7.5.6.9l-3.7 20.5c-.1.4-.4.6-.8.6z"/><path class="st2" d="M246.4 45.7h-16.5c-.4 0-.8-.4-.8-.8s.4-.8.8-.8h16.5c.4 0 .8.4.8.8s-.4.8-.8.8zm-.9 6H229c-.4 0-.8-.4-.8-.8s.4-.8.8-.8h16.5c.4 0 .8.4.8.8s-.4.8-.8.8z"/></g><path opacity=".4" fill="#00b3e7" stroke="#00b3e7" stroke-width=".513" stroke-linecap="round" stroke-linejoin="round" stroke-miterlimit="10" stroke-dasharray="3.0794,3.0794" d="M366.1 212.9l-151 131.3-102.3-131.3z"/><path class="st0" d="M501.6 268.3c-.1 0-.3 0-.4-.1-.4-.2-9.4-4.9-11.8-13-1.5-4.9 1.2-8.3 4.3-9.4 2.7-.9 6-.2 7.9 2.6 1.9-2.8 5.2-3.5 7.9-2.6 3.1 1.1 5.8 4.4 4.3 9.4-2.4 8.1-11.4 12.8-11.8 13-.1.1-.3.1-.4.1zm-5.7-21c-.6 0-1.2.1-1.7.3-2.4.8-4.3 3.3-3.1 7.1 1.9 6.4 8.7 10.7 10.5 11.6 1.7-1 8.6-5.2 10.5-11.6 1.1-3.8-.8-6.3-3.1-7.1-2.2-.8-5.2-.1-6.5 3.2-.1.3-.5.6-.8.6-.4 0-.7-.2-.8-.6-1.1-2.5-3.1-3.5-5-3.5z"/><g class="st1"><path class="st2" d="M498.6 266.4c-.1 0-.3 0-.4-.1-.4-.2-9.4-4.9-11.8-13-1.5-4.9 1.2-8.3 4.3-9.4 2.7-.9 6-.2 7.9 2.6 1.9-2.8 5.2-3.5 7.9-2.6 3.1 1.1 5.8 4.4 4.3 9.4-2.4 8.1-11.4 12.8-11.8 13-.1.1-.2.1-.4.1zm-5.6-21c-.6 0-1.2.1-1.7.3-2.4.8-4.3 3.3-3.1 7.1 1.9 6.4 8.7 10.7 10.5 11.6 1.7-1 8.6-5.2 10.5-11.6 1.1-3.8-.8-6.3-3.1-7.1-2.2-.8-5.2-.1-6.5 3.2-.1.3-.5.6-.8.6s-.7-.2-.8-.6c-1.2-2.5-3.1-3.5-5-3.5z"/></g><g class="st3"><path class="st2" d="M504.3 271.6c-.1 0-.3 0-.4-.1-.4-.2-9.4-4.9-11.8-13-1.5-4.9 1.2-8.3 4.3-9.4 2.7-.9 6-.2 7.9 2.6 1.9-2.8 5.2-3.5 7.9-2.6 3.1 1.1 5.8 4.4 4.3 9.4-2.4 8.1-11.4 12.8-11.8 13-.1 0-.3.1-.4.1zm-5.6-21c-.6 0-1.2.1-1.7.3-2.4.8-4.3 3.3-3.1 7.1 1.9 6.4 8.7 10.7 10.5 11.6 1.7-1 8.6-5.2 10.5-11.6 1.1-3.8-.8-6.3-3.1-7.1-2.2-.8-5.2-.1-6.5 3.2-.1.3-.5.6-.8.6-.4 0-.7-.2-.8-.6-1.2-2.5-3.2-3.5-5-3.5z"/></g><g class="st1"><path class="st2" d="M260 76.7l139.5-51.9L456.7 160z"/><path class="st6" d="M261.4 77.3l-1.4-.6 1.4-.6"/><path fill="none" stroke="#00b3e7" stroke-width=".513" stroke-linecap="round" stroke-linejoin="round" stroke-dasharray="3.1012,3.1012" d="M264.3 75l132.3-49.1"/><path class="st6" d="M398 25.3l1.5-.5.6 1.4"/><path fill="none" stroke="#00b3e7" stroke-width=".513" stroke-linecap="round" stroke-linejoin="round" stroke-dasharray="3.0579,3.0579" d="M401.3 29l54.2 128.2"/><path class="st6" d="M456.1 158.6l.6 1.4-1.4-.6"/><path fill="none" stroke="#00b3e7" stroke-width=".513" stroke-linecap="round" stroke-linejoin="round" stroke-dasharray="3.0525,3.0525" d="M452.5 158.2L262.8 77.8"/></g><path class="st10" d="M316.3 76.7l99.6-51.9L456.7 160z"/><path opacity=".5" fill="#00b3e7" stroke="#00b3e7" stroke-width=".608" stroke-linecap="round" stroke-linejoin="round" stroke-miterlimit="10" stroke-dasharray="3.6448,3.6448" d="M612.1 24.8L401.5 149.2l261.9 16.7z"/><path class="st10" d="M468.7 176.1l36.7 55.6 20.3-59.2z"/><path class="st0" d="M602 173.1l17.6 33.1-54.3 22.5z"/><path class="st12" d="M712 173.1l-84.7-5.4 17.5 33.2z"/><path opacity=".8" fill="#00b3e7" stroke="#00b3e7" stroke-width=".513" stroke-linecap="round" stroke-linejoin="round" stroke-miterlimit="10" stroke-dasharray="3.0794,3.0794" d="M284.6 146L210 260.3l-41.8-122.4z"/><path class="st10" d="M301.7 178.3l-112.5 91.1-2.5-137.1zm89.7 170.2V227.1l64.9 56.5zm200.5-177l27.9 25.2-43.3 39.6z"/><path opacity=".4" fill="#00b3e7" d="M456.9 186.8l78.6-4.9-11.4 32.8z"/><path class="st0" d="M762.5 76.9v50.3l-67.2-22.4z"/><path class="st10" d="M770.6 97.1l-25.2 43.6-46.9-53.1z"/><path class="st12" d="M70.9 105.4l-50.2-2.9L47 36.7z"/><path class="st10" d="M85.8 88.1l-44.3 23.8-12-69.8z"/><path class="st0" d="M124.1 404.2l26.8-42.5 9 38.8z"/><path class="st10" d="M132 425.6l.6-50.3 66.9 23.3z"/><path class="st0" d="M563.9 418.5l-50.2-2.9 25.1-39.7z"/><path class="st10" d="M578.8 401.2L534.5 425l-13.2-43.7zm121.7-248l-75.8 38.2 31.9 19.8zm-335.6 84L300 293.7l-56.5-56.5zm59.1-69.3v50.3H302.6zm-183.4 82l71.8 71.9m-2.9-238.9L240.8 106l-29 55.8"/><path class="st10" d="M394.2 364.6l64.8-64.7 71.9-72 25.8-75.3-29.1-55.8L459 73.7l-61.5 32m-3.3 287.1L459 328l71.9-71.9"/></svg>