<svg width="30" height="30" xmlns="http://www.w3.org/2000/svg"><defs><radialGradient cx="29.008%" cy="99.791%" fx="29.008%" fy="99.791%" r="100.892%" id="a"><stop stop-color="#FFD776" offset="0%"/><stop stop-color="#F3A554" offset="24.63%"/><stop stop-color="#F15C3C" offset="37.93%"/><stop stop-color="#D94867" offset="53.94%"/><stop stop-color="#C32F87" offset="69.95%"/><stop stop-color="#7D63A7" offset="91.22%"/><stop stop-color="#5C6CB3" offset="98.52%"/></radialGradient><radialGradient cx="29.063%" cy="99.751%" fx="29.063%" fy="99.751%" r="100.814%" id="b"><stop stop-color="#FFD776" offset="0%"/><stop stop-color="#F3A554" offset="24.63%"/><stop stop-color="#F15C3C" offset="37.93%"/><stop stop-color="#D94867" offset="60.7%"/><stop stop-color="#C32F87" offset="83.46%"/><stop stop-color="#7D63A7" offset="95.77%"/><stop stop-color="#5C6CB3" offset="100%"/></radialGradient><radialGradient cx="29.104%" cy="99.775%" fx="29.104%" fy="99.775%" r="101.074%" id="c"><stop stop-color="#5F6DB3" offset="0%"/><stop stop-color="#5C6CB3" offset="100%"/></radialGradient></defs><g fill="none"><path d="M29.158 5.158a7.297 7.297 0 0 0-1.72-2.643A7.297 7.297 0 0 0 24.796.796c-.946-.37-2.042-.623-3.623-.692-1.592-.07-2.1-.092-6.161-.092-4.062 0-4.57.011-6.162.092-1.592.07-2.677.323-3.623.692-.98.38-1.812.889-2.642 1.72a7.297 7.297 0 0 0-1.72 2.642C.496 6.104.242 7.2.173 8.78c-.07 1.592-.092 2.1-.092 6.161 0 4.062.011 4.57.092 6.162.07 1.592.323 2.677.692 3.623.381.98.889 1.811 1.72 2.642a7.297 7.297 0 0 0 2.642 1.72c.946.369 2.042.623 3.623.692 1.592.069 2.1.092 6.162.092 4.061 0 4.569-.011 6.161-.092 1.592-.07 2.677-.323 3.623-.693a7.297 7.297 0 0 0 2.642-1.719 7.297 7.297 0 0 0 1.72-2.642c.369-.946.623-2.042.692-3.623.07-1.592.092-2.1.092-6.162 0-4.061-.011-4.569-.092-6.161-.07-1.593-.323-2.677-.692-3.623zm-1.996 15.819c-.07 1.454-.312 2.25-.52 2.77-.265.691-.6 1.2-1.119 1.718-.52.52-1.015.843-1.72 1.12-.53.207-1.315.45-2.768.519-1.581.07-2.043.092-6.035.092s-4.465-.011-6.035-.092c-1.453-.07-2.25-.312-2.769-.52-.692-.265-1.2-.6-1.72-1.119a4.674 4.674 0 0 1-1.118-1.719c-.208-.53-.45-1.315-.52-2.77-.069-1.58-.092-2.053-.092-6.034 0-3.98.012-4.465.092-6.034.07-1.454.312-2.25.52-2.77.265-.692.6-1.2 1.119-1.719A4.674 4.674 0 0 1 6.197 3.3c.53-.208 1.315-.45 2.768-.52 1.581-.068 2.054-.092 6.035-.092 3.98 0 4.465.012 6.035.093 1.453.069 2.25.311 2.769.519.692.265 1.2.6 1.72 1.12a4.68 4.68 0 0 1 1.118 1.718c.208.531.45 1.316.52 2.77.069 1.58.092 2.054.092 6.034 0 3.981-.023 4.466-.092 6.035z" fill="url(#a)"/><path d="M15 7.27a7.677 7.677 0 0 0-7.673 7.672A7.677 7.677 0 0 0 15 22.615a7.677 7.677 0 0 0 7.673-7.673A7.677 7.677 0 0 0 15 7.27zm0 12.657a4.986 4.986 0 0 1-4.985-4.985A4.986 4.986 0 0 1 15 9.958a4.979 4.979 0 0 1 4.985 4.984A4.993 4.993 0 0 1 15 19.927z" fill="url(#b)"/><circle fill="url(#c)" cx="22.973" cy="6.969" r="1.788"/></g></svg>