<svg xmlns="http://www.w3.org/2000/svg" viewBox="0 0 792 211.6"><path d="M271.7 48.4c-3.1 1.6-6.4 2.4-9.7 2.4-4.8 0-8.6-1.8-11.3-5.4-2.7-3.6-4.1-8.6-4.1-14.9s1.4-11.4 4.1-14.9 6.5-5.4 11.3-5.4c3.3 0 6.5.8 9.6 2.4v2.8c-1.7-.8-3.2-1.4-4.7-1.8-1.4-.4-2.9-.6-4.5-.6-4 0-7 1.5-9.1 4.4-2 2.9-3.1 7.3-3.1 13s1 10 3.1 13c2 2.9 5.1 4.4 9.1 4.4 3.1 0 6.2-.8 9.3-2.3v2.9zm24.9 1.7l-.2-1.9c-3.1 1.8-6.2 2.7-9.2 2.7-2.8 0-5-.8-6.6-2.3-1.6-1.5-2.4-3.6-2.4-6.2 0-2.8.9-4.9 2.7-6.4 1.8-1.5 4.5-2.2 8-2.2 2.1 0 4.5.3 7.3.8v-3.8c0-4.6-2.5-6.9-7.6-6.9-1.3 0-2.8.2-4.4.6-1.6.4-3 .9-4.4 1.4v-2.6c1.3-.6 2.8-1.1 4.5-1.5 1.7-.4 3.3-.6 4.8-.6 3.4 0 6 .8 7.7 2.5 1.8 1.6 2.6 4 2.6 7.1v19l-2.8.3zm-8.7-2c1.3 0 2.7-.2 4.1-.6 1.4-.4 2.8-1 4.1-1.7v-8.9c-2.3-.4-4.5-.7-6.7-.7-2.8 0-4.8.5-6.1 1.4-1.3 1-1.9 2.5-1.9 4.6.1 4 2.2 5.9 6.5 5.9zm21 14.2V22.1l2.8-.3.2 1.9c3.1-1.8 5.9-2.7 8.4-2.7 3.5 0 6.3 1.3 8.3 3.8 2 2.5 3 6.1 3 10.5 0 4.9-1.1 8.7-3.4 11.3-2.3 2.6-5.6 3.9-9.9 3.9-2.2 0-4.3-.3-6.2-.9v12l-3.2.7zm11-38.5c-1.2 0-2.5.2-3.8.6-1.4.4-2.7 1-3.9 1.7v21.1c1.9.6 3.8.9 5.9.9 3.5 0 6-1 7.7-3.1 1.7-2.1 2.5-5.2 2.5-9.5 0-3.8-.7-6.7-2.1-8.7-1.5-2-3.6-3-6.3-3zm21.5-8.6c-.7 0-1.3-.2-1.8-.7-.5-.4-.7-1.1-.7-1.8s.2-1.4.7-1.8c.5-.4 1-.7 1.8-.7.7 0 1.3.2 1.8.7.5.4.7 1.1.7 1.8s-.2 1.4-.7 1.8c-.5.5-1.1.7-1.8.7zm-1.6 34.7V22.3l3.2-.4V50h-3.2zM357 24.5v17.8c0 1.9.4 3.3 1.2 4.3.8.9 2 1.4 3.7 1.4 1.1 0 2.3-.2 3.7-.6v2.4c-1.5.5-2.9.8-4.2.8-2.5 0-4.4-.7-5.7-2.1-1.3-1.4-2-3.5-2-6.2V24.5h-4.1v-2.4l4.2-.2.3-7 2.8-.3V22h8.2v2.6H357zm31.7 25.6l-.2-1.9c-3.1 1.8-6.2 2.7-9.2 2.7-2.8 0-5-.8-6.6-2.3-1.6-1.5-2.4-3.6-2.4-6.2 0-2.8.9-4.9 2.7-6.4 1.8-1.5 4.5-2.2 8-2.2 2.1 0 4.5.3 7.3.8v-3.8c0-4.6-2.5-6.9-7.6-6.9-1.3 0-2.8.2-4.4.6-1.6.4-3 .9-4.4 1.4v-2.6c1.3-.6 2.8-1.1 4.5-1.5 1.7-.4 3.3-.6 4.8-.6 3.4 0 6 .8 7.7 2.5 1.8 1.6 2.6 4 2.6 7.1v19l-2.8.3zm-8.7-2c1.3 0 2.7-.2 4.1-.6 1.4-.4 2.8-1 4.1-1.7v-8.9c-2.3-.4-4.5-.7-6.7-.7-2.8 0-4.8.5-6.1 1.4-1.3 1-1.9 2.5-1.9 4.6 0 4 2.2 5.9 6.5 5.9zm20.9 1.8V8.2l3.2-.4V50h-3.2zm41.9.9c-5 0-8.8-1.8-11.5-5.3-2.7-3.5-4-8.5-4-15s1.3-11.5 4-15 6.5-5.3 11.5-5.3 8.8 1.8 11.5 5.3c2.7 3.5 4 8.5 4 15s-1.3 11.5-4 15-6.6 5.3-11.5 5.3zm0-2.9c7.9 0 11.9-5.8 11.9-17.5 0-11.6-4-17.5-11.9-17.5s-11.9 5.8-11.9 17.5c-.1 11.7 3.9 17.5 11.9 17.5zm42.3 2V30.7c0-4.6-2.3-6.8-6.8-6.8-1.2 0-2.5.2-3.9.6-1.4.4-2.8 1-4.2 1.7v23.9H467v-28l2.8-.3.2 1.9c3.1-1.8 6.2-2.7 9.2-2.7 2.9 0 5.2.8 6.8 2.3 1.6 1.6 2.4 3.8 2.4 6.6v19.8h-3.3zm32-1c-2.5 1.2-5.2 1.8-8 1.8-4.2 0-7.3-1.3-9.6-3.8-2.2-2.5-3.4-6.1-3.4-10.8 0-4.7 1-8.3 3.1-11 2.1-2.7 5-4 8.6-4 3.2 0 5.8 1 7.6 3.1 1.9 2.1 2.8 4.9 2.8 8.4 0 1.3-.1 2.6-.3 3.8h-18.6c0 7.7 3.4 11.6 10 11.6 2.7 0 5.3-.6 7.7-1.8v2.7zm-9.3-25.1c-2.5 0-4.5.9-6 2.8-1.6 1.9-2.4 4.3-2.5 7.4h15.8c.1-.6.1-1.1.1-1.6 0-2.7-.6-4.9-2-6.4-1.2-1.5-3-2.2-5.4-2.2zM5.1 135.7v-54c5.6-1.2 10.8-1.7 15.4-1.7 8.2 0 14.6 2.4 19.1 7.3 4.5 4.9 6.7 11.7 6.7 20.5 0 9-2.3 15.9-6.8 20.7-4.5 4.8-11 7.2-19.5 7.2H5.1zm14.9-6.3c6.1 0 10.7-1.8 13.8-5.3 3-3.5 4.6-8.9 4.6-16.1 0-7.4-1.5-12.8-4.5-16.3s-7.5-5.3-13.6-5.3c-2.5 0-5.1.2-7.8.7v42.4H20zm46.2 6.3V80.5h7.4v55.1h-7.4zm68.1-2.3c-4.7 2.3-9.9 3.5-15.7 3.5-7.9 0-14.1-2.5-18.5-7.6-4.4-5-6.6-12.1-6.6-21.2 0-6 1-11.2 3-15.6 2-4.3 4.9-7.6 8.6-9.8 3.7-2.2 8.1-3.3 13.2-3.3 5.3 0 10.3 1.2 14.9 3.5V89c-4.7-2.3-9.4-3.4-14.1-3.4-5.8 0-10.2 1.9-13.2 5.7-3 3.8-4.5 9.4-4.5 16.7 0 7.4 1.5 13 4.5 16.8 3 3.8 7.5 5.7 13.4 5.7 2.7 0 5.3-.3 7.8-1v-17.3H121l.8-6.2h12.4v27.4zm20.1 2.3V80.5h7.4v55.1h-7.4zm40 0V86.8h-15.7v-6.3h38.9v6.3h-15.7v48.8h-7.5zm68.3 0l-4.5-13.6h-22l-4.4 13.6h-7.7l18.6-55.1h8.8l18.6 55.1h-7.4zm-24.6-19.5h18.3l-9.2-28.4-9.1 28.4zm48.4 19.5V80.5h7.4v48.8h24.7v6.3h-32.1zm64.9 0V80.5H384v6.3h-25.2v18.9h21.9v6.3h-21.9v23.6h-7.4zm46.8-27.6c0-9.3 2-16.4 5.9-21.3 3.9-4.9 9.6-7.4 16.9-7.4 7.4 0 13 2.5 16.9 7.4 3.9 4.9 5.9 12 5.9 21.3s-2 16.4-5.9 21.3c-3.9 4.9-9.6 7.4-16.9 7.4-7.4 0-13-2.5-16.9-7.4-3.9-4.9-5.9-12-5.9-21.3zm8 0c0 7.6 1.2 13.2 3.6 16.9 2.4 3.7 6.2 5.6 11.2 5.6 5.1 0 8.8-1.9 11.2-5.6 2.4-3.7 3.6-9.3 3.6-16.9 0-7.6-1.2-13.2-3.6-16.9-2.4-3.7-6.2-5.6-11.2-5.6-5.1 0-8.8 1.9-11.2 5.6-2.4 3.7-3.6 9.3-3.6 16.9zm87.7 27.6l-13.1-21.8h-9.7v21.8h-7.3v-54c2.4-.5 5.1-.9 8.1-1.3 3-.3 5.6-.5 7.7-.5 6.2 0 11.1 1.5 14.7 4.6s5.3 7.2 5.3 12.5c0 3.8-1 7.1-3 9.8-2 2.7-4.9 4.6-8.6 5.7l14.7 23.1h-8.8zm-14.8-49.8c-2.4 0-5.1.3-8.1.8V108h7.9c4.2 0 7.4-.9 9.7-2.8 2.3-1.9 3.4-4.6 3.4-8 0-3.6-1.1-6.4-3.3-8.3-2.1-2.1-5.3-3-9.6-3zm95.2 47.5c-4.7 2.3-9.9 3.5-15.7 3.5-7.9 0-14.1-2.5-18.5-7.6-4.4-5-6.6-12.1-6.6-21.2 0-6 1-11.2 3-15.6 2-4.3 4.9-7.6 8.6-9.8 3.7-2.2 8.1-3.3 13.2-3.3 5.3 0 10.3 1.2 14.9 3.5V89c-4.7-2.3-9.4-3.4-14.1-3.4-5.8 0-10.2 1.9-13.2 5.7-3 3.8-4.5 9.4-4.5 16.7 0 7.4 1.5 13 4.5 16.8 3 3.8 7.5 5.7 13.4 5.7 2.7 0 5.3-.3 7.8-1v-17.3H561l.8-6.2h12.4v27.4zm17.6-25.3c0-9.3 2-16.4 5.9-21.3 3.9-4.9 9.6-7.4 16.9-7.4 7.4 0 13 2.5 16.9 7.4 3.9 4.9 5.9 12 5.9 21.3s-2 16.4-5.9 21.3c-3.9 4.9-9.6 7.4-16.9 7.4-7.4 0-13-2.5-16.9-7.4-3.9-4.9-5.9-12-5.9-21.3zm7.9 0c0 7.6 1.2 13.2 3.6 16.9 2.4 3.7 6.2 5.6 11.2 5.6 5.1 0 8.8-1.9 11.2-5.6 2.4-3.7 3.6-9.3 3.6-16.9 0-7.6-1.2-13.2-3.6-16.9-2.4-3.7-6.2-5.6-11.2-5.6-5.1 0-8.8 1.9-11.2 5.6-2.4 3.7-3.6 9.3-3.6 16.9zm55.1 0c0-9.3 2-16.4 5.9-21.3 3.9-4.9 9.6-7.4 16.9-7.4 7.4 0 13 2.5 16.9 7.4 3.9 4.9 5.9 12 5.9 21.3s-2 16.4-5.9 21.3c-3.9 4.9-9.6 7.4-16.9 7.4-7.4 0-13-2.5-16.9-7.4-3.9-4.9-5.9-12-5.9-21.3zm7.9 0c0 7.6 1.2 13.2 3.6 16.9 2.4 3.7 6.2 5.6 11.2 5.6 5.1 0 8.8-1.9 11.2-5.6 2.4-3.7 3.6-9.3 3.6-16.9 0-7.6-1.2-13.2-3.6-16.9-2.4-3.7-6.2-5.6-11.2-5.6-5.1 0-8.8 1.9-11.2 5.6-2.4 3.7-3.6 9.3-3.6 16.9zm57.6 27.6v-54c5.6-1.2 10.8-1.7 15.4-1.7 8.2 0 14.6 2.4 19.1 7.3 4.5 4.9 6.7 11.7 6.7 20.5 0 9-2.3 15.9-6.8 20.7-4.5 4.8-11 7.2-19.5 7.2h-14.9zm15-6.3c6.1 0 10.7-1.8 13.8-5.3 3-3.5 4.6-8.9 4.6-16.1 0-7.4-1.5-12.8-4.5-16.3s-7.5-5.3-13.6-5.3c-2.5 0-5.1.2-7.8.7v42.4h7.5zM247 195.8c3.9 1.8 7.6 2.6 11.1 2.6 3.3 0 5.9-.8 7.7-2.3 1.8-1.5 2.7-3.7 2.7-6.5 0-2.1-.6-3.9-1.8-5.2-1.2-1.3-3.2-2.4-6-3.3l-4-1.3c-3.1-1-5.3-2.2-6.7-3.8-1.4-1.5-2.1-3.5-2.1-5.9 0-3.2 1.2-5.9 3.6-7.8 2.4-2 5.6-3 9.6-3 3.2 0 6.4.7 9.4 2.1v2.9c-3.2-1.4-6.3-2.1-9.3-2.1-3.1 0-5.4.7-7.1 2-1.7 1.4-2.6 3.3-2.6 5.7 0 1.7.5 3.1 1.5 4.1s2.7 1.9 5.1 2.7l4 1.3c3.6 1.2 6.1 2.7 7.7 4.4 1.6 1.8 2.3 4.1 2.3 6.9 0 3.6-1.2 6.5-3.7 8.6-2.5 2.1-5.9 3.2-10.1 3.2-3.9 0-7.5-.8-10.7-2.5l-.6-2.8zm70.5-35.4h3.4v26.8c0 4.6-1.2 8.2-3.5 10.6-2.3 2.4-5.7 3.6-10 3.6-4.4 0-7.8-1.2-10.1-3.6-2.3-2.4-3.5-6-3.5-10.6v-26.8h3.5v26.8c0 7.5 3.4 11.2 10.1 11.2 3.4 0 5.9-.9 7.6-2.8 1.7-1.8 2.5-4.6 2.5-8.4v-26.8zm62.2 40.1l-2.1-35.3-12.3 31.8h-3.2l-12.3-31.9-2.1 35.4h-3.4l2.7-40.1h4.1l12.5 32.6 12.6-32.6h4.1l2.7 40.1h-3.3zm61.1 0l-2.1-35.3-12.3 31.8h-3.2l-12.3-31.9-2.1 35.4h-3.4l2.7-40.1h4.1l12.5 32.6 12.6-32.6h4.1l2.7 40.1h-3.3zm27.1 0v-40.1h3.5v40.1h-3.5zm35.6 0v-37.2h-11.8v-2.9h27.1v2.9H507v37.2h-3.5zm27.8-177.3c-1.4 0-2.6-.3-3.7-1s-2-1.6-2.6-2.7c-.6-1.1-.9-2.4-.9-3.7 0-1.4.3-2.7 1-3.9.7-1.1 1.6-2 2.7-2.7 1.1-.6 2.3-.9 3.6-.9 1.4 0 2.6.3 3.7 1s2 1.6 2.6 2.7c.6 1.1.9 2.4.9 3.7 0 1.4-.3 2.7-1 3.9-.7 1.1-1.6 2-2.7 2.7-1.1.6-2.3.9-3.6.9zm0-1.2c1.2 0 2.2-.3 3.1-.9.9-.6 1.6-1.3 2.1-2.3.5-1 .7-2 .7-3.2 0-1.2-.3-2.3-.8-3.3s-1.3-1.7-2.2-2.2c-.9-.5-1.9-.8-3-.8-1.2 0-2.2.3-3.1.9-.9.6-1.6 1.3-2.1 2.3-.5 1-.7 2-.7 3.2 0 1.2.3 2.3.8 3.3s1.3 1.7 2.2 2.2c1 .6 1.9.8 3 .8zm1.9-2.3l-2-3.2h-1.3v3.2h-1.1v-7.9c.9-.2 1.7-.2 2.3-.2.9 0 1.6.2 2.1.7.5.4.8 1 .8 1.8 0 1.2-.6 1.9-1.8 2.3l2.1 3.4h-1.1zm-3.3-4.2h1.1c.6 0 1.1-.1 1.4-.4.3-.3.5-.7.5-1.2s-.2-.9-.5-1.1c-.3-.3-.8-.4-1.4-.4-.4 0-.7 0-1.2.1v3zm239 74.1V79h-3.4v-1.2h8.3V79h-3.4v10.6h-1.5zm16.6 0l-.6-9.6-3.2 8.4h-1.2l-3.3-8.4-.6 9.6h-1.3l.8-11.7h1.6l3.4 8.8 3.4-8.8h1.6l.8 11.7h-1.4z" fill="#fff"/></svg>